<svg fill="none" height="726" viewBox="0 0 1092 726" width="1092" xmlns="http://www.w3.org/2000/svg" xmlns:xlink="http://www.w3.org/1999/xlink"><linearGradient id="a" gradientUnits="userSpaceOnUse" x1="-828.578" x2="-828.578" y1="492.817" y2="935.817"><stop offset="0" stop-color="#ff9d52"/><stop offset="1" stop-color="#ff6f00"/></linearGradient><mask id="b" height="587" maskUnits="userSpaceOnUse" width="991" x="20" y="107"><path clip-rule="evenodd" d="m52.5354 128.547c-18.0416.408-32.4091 15.233-32.2519 33.279l3.8709 444.25c.1509 17.319 13.6649 31.574 30.951 32.649l885.4816 55.053c18.138 1.128 33.774-12.621 34.976-30.754l34.477-520.217c1.28-19.338-14.302-35.612-33.677-35.173zm900.8866 51.27c11.598 0 21-9.402 21-21s-9.402-21-21-21-21 9.402-21 21 9.402 21 21 21z" fill="#fff" fill-rule="evenodd"/></mask><mask id="c" height="270" maskUnits="userSpaceOnUse" width="193" x="898" y="2"><path clip-rule="evenodd" d="m937.476 144.922c2.941-2.543 5.037-5.011 8.645-5.011 3.609 0 37.008 15.847 37.008 15.847l36.821-17.307-24.816-26.134-57.658-3.79-10.629.329-18.051-18.4978 19.154-25.1804 69.322-41.9524s59.738-43.2828 82.078-5.9039c22.35 37.379 4.04 254.1235 4.04 254.1235l-63.44-36.741-121.316-4.814 32.571-71.072 2.541-12.593s.789 1.24 3.73-1.303z" fill="#fff" fill-rule="evenodd"/></mask><path clip-rule="evenodd" d="m.320168 196.028c-.170986-19.624 16.718532-35.059 36.247632-33.127l746.7682 73.878c13.267 1.313 24.441 10.479 28.322 23.234l127.889 420.311c6.702 22.026-10.64 43.971-33.618 42.543l-870.8236-54.142c-17.286-1.075-30.80007-15.33-30.95097-32.649z" fill="#e06506" fill-rule="evenodd"/><path clip-rule="evenodd" d="m52.5354 128.547c-18.0416.408-32.4091 15.233-32.2519 33.279l3.8709 444.25c.1509 17.319 13.6649 31.574 30.951 32.649l885.4816 55.053c18.138 1.128 33.774-12.621 34.976-30.754l34.477-520.217c1.28-19.338-14.302-35.612-33.677-35.173zm900.8866 51.27c11.598 0 21-9.402 21-21s-9.402-21-21-21-21 9.402-21 21 9.402 21 21 21z" fill="#9b59b6" fill-rule="evenodd"/><g mask="url(#b)"><path clip-rule="evenodd" d="m-828.578 935.817s750.1731-513.441 1057.159-431.799c306.985 81.643 302.785 393.699 302.785 393.699z" fill="url(#a)" fill-rule="evenodd"/></g><g mask="url(#c)"><path d="m938.995 143.283s2.585 38.901 43.792 30.518c28.733-5.844 10.539 44.25 19.903 49.042 31 15.86 35.28 41.553 62.28 7.047 27-34.507 28.61-94.168-28.26-94.168-26.17 0-62.288-77.6642-97.715-28.097" stroke="#ddd" stroke-dasharray="15" stroke-width="5"/></g></svg>