<svg fill="none" height="530" viewBox="0 0 1920 530" width="1920" xmlns="http://www.w3.org/2000/svg" xmlns:xlink="http://www.w3.org/1999/xlink"><linearGradient id="a"><stop offset="0" stop-color="#ff9d52"/><stop offset="1" stop-color="#ff6f00"/></linearGradient><linearGradient id="b" gradientUnits="userSpaceOnUse" x1="695" x2="695" xlink:href="#a" y1="185" y2="616"/><linearGradient id="c" gradientUnits="userSpaceOnUse" x1="711.235" x2="599.684" xlink:href="#a" y1="341.448" y2="-74.8658"/><mask id="d" height="510" maskUnits="userSpaceOnUse" width="1920" x="0" y="0"><path clip-rule="evenodd" d="m0 118 1920-118v490l-1920 20z" fill="#fff" fill-rule="evenodd"/></mask><path clip-rule="evenodd" d="m0 138h1920v392h-1920z" fill="#71368a" fill-rule="evenodd"/><path clip-rule="evenodd" d="m0 118 1920-118v490l-1920 20z" fill="#9b59b6" fill-rule="evenodd"/><g mask="url(#d)"><path clip-rule="evenodd" d="m695 616s729.76-499.534 1028.4-420.102c298.63 79.431 294.54 383.034 294.54 383.034z" fill="url(#b)" fill-rule="evenodd"/><path clip-rule="evenodd" d="m599.684-74.8658s-575.6084 671.3888-884.625 671.9568c-309.016.567-383.647-293.749-383.647-293.749z" fill="url(#c)" fill-rule="evenodd"/><path d="m174 643.109s135.087-182.452 327.553-191.609 586.047-277.788 896.537-522.2117c310.49-244.4233 745-59.7563 939.88 399.9187" opacity=".7" stroke="#eee" stroke-dasharray="30" stroke-width="2"/></g></svg>