<svg fill="none" height="93" viewBox="0 0 1410 93" width="1410" xmlns="http://www.w3.org/2000/svg" xmlns:xlink="http://www.w3.org/1999/xlink"><linearGradient id="a" gradientUnits="userSpaceOnUse" x1="0" x2="0" y1=".107758" y2="85.6856"><stop offset="0" stop-color="#d484f5"/><stop offset="1" stop-color="#9b59b6"/></linearGradient><linearGradient id="b" gradientUnits="userSpaceOnUse" x1="992.623" x2="992.623" y1="-11.5952" y2="93"><stop offset="0" stop-color="#ff9d52"/><stop offset="1" stop-color="#ff6f00"/></linearGradient><mask id="c" height="86" maskUnits="userSpaceOnUse" width="1410" x="0" y="0"><path d="m0 .107758h1410v50.577842c0 19.33-15.67 35-35 35h-1340c-19.3299 0-35-15.67-35-35z" fill="#fff"/></mask><path d="m0 7.42209h1410v50.57791c0 19.3299-15.67 35-35 35h-1340c-19.3299 0-35-15.6701-35-35z" fill="#71368a"/><path d="m0 .107758h1410v50.577842c0 19.33-15.67 35-35 35h-1340c-19.3299 0-35-15.67-35-35z" fill="url(#a)"/><g mask="url(#c)"><path clip-rule="evenodd" d="m992.623 93s261.837-121.227 368.987-101.95059c107.14 19.27639 105.68 92.95489 105.68 92.95489z" fill="url(#b)" fill-rule="evenodd"/></g></svg>