<svg width="1304" height="127" viewBox="0 0 1304 127" fill="none" xmlns="http://www.w3.org/2000/svg">
<path d="M0 10H1304V92C1304 111.33 1288.33 127 1269 127H35C15.6701 127 0 111.33 0 92V10Z" fill="#71368A"/>
<path d="M0 0H1304V82C1304 101.33 1288.33 117 1269 117H35C15.6701 117 0 101.33 0 82V0Z" fill="url(#paint0_linear_23_363)"/>
<mask id="mask0_23_363" style="mask-type:alpha" maskUnits="userSpaceOnUse" x="0" y="0" width="1304" height="117">
<path d="M0 0H1304V82C1304 101.33 1288.33 117 1269 117H35C15.6701 117 0 101.33 0 82V0Z" fill="white"/>
</mask>
<g mask="url(#mask0_23_363)">
<path fill-rule="evenodd" clip-rule="evenodd" d="M918 127C918 127 1160.15 -38.7385 1259.24 -12.3843C1358.34 13.9698 1356.98 114.701 1356.98 114.701L918 127Z" fill="url(#paint1_linear_23_363)"/>
</g>
<defs>
<linearGradient id="paint0_linear_23_363" x1="0" y1="0" x2="0" y2="117" gradientUnits="userSpaceOnUse">
<stop stop-color="#D484F5"/>
<stop offset="1" stop-color="#9B59B6"/>
</linearGradient>
<linearGradient id="paint1_linear_23_363" x1="918" y1="-16" x2="918" y2="127" gradientUnits="userSpaceOnUse">
<stop stop-color="#FF9D52"/>
<stop offset="1" stop-color="#FF6F00"/>
</linearGradient>
</defs>
</svg>
