<svg fill="none" height="127" viewBox="0 0 1304 127" width="1304" xmlns="http://www.w3.org/2000/svg" xmlns:xlink="http://www.w3.org/1999/xlink"><linearGradient id="a" gradientUnits="userSpaceOnUse" x1="0" x2="0" y1="0" y2="117"><stop offset="0" stop-color="#d484f5"/><stop offset="1" stop-color="#9b59b6"/></linearGradient><linearGradient id="b" gradientUnits="userSpaceOnUse" x1="918" x2="918" y1="-16" y2="127"><stop offset="0" stop-color="#ff9d52"/><stop offset="1" stop-color="#ff6f00"/></linearGradient><mask id="c" height="117" maskUnits="userSpaceOnUse" width="1304" x="0" y="0"><path d="m0 0h1304v82c0 19.33-15.67 35-35 35h-1234c-19.3299 0-35-15.67-35-35z" fill="#fff"/></mask><path d="m0 10h1304v82c0 19.33-15.67 35-35 35h-1234c-19.3299 0-35-15.67-35-35z" fill="#71368a"/><path d="m0 0h1304v82c0 19.33-15.67 35-35 35h-1234c-19.3299 0-35-15.67-35-35z" fill="url(#a)"/><g mask="url(#c)"><path clip-rule="evenodd" d="m918 127s242.15-165.7385 341.24-139.3843c99.1 26.3541 97.74 127.0853 97.74 127.0853z" fill="url(#b)" fill-rule="evenodd"/></g></svg>