<svg fill="none" height="989" viewBox="0 0 1920 989" width="1920" xmlns="http://www.w3.org/2000/svg" xmlns:xlink="http://www.w3.org/1999/xlink"><linearGradient id="a"><stop offset="0" stop-color="#ff9d52"/><stop offset="1" stop-color="#ff6f00"/></linearGradient><linearGradient id="b" gradientUnits="userSpaceOnUse" x1="54" x2="54" xlink:href="#a" y1="485.534" y2="1298.53"/><linearGradient id="c" gradientUnits="userSpaceOnUse" x1="1335" x2="1335" xlink:href="#a" y1="485.534" y2="-327.466"/><mask height="989" maskUnits="userSpaceOnUse" width="1920" x="0" y="0"><path clip-rule="evenodd" d="m0 0 1920 122.466v865.604l-1920-90z" fill="#fff" fill-rule="evenodd"/></mask><mask height="989" maskUnits="userSpaceOnUse" width="1920" x="0" y="0"><path clip-rule="evenodd" d="m0 0 1920 122.466v865.604l-1920-90z" fill="#fff" fill-rule="evenodd"/></mask><mask id="d" height="989" maskUnits="userSpaceOnUse" width="1920" x="0" y="0"><path clip-rule="evenodd" d="m0 0 1920 122.466v865.604l-1920-90z" fill="#fff" fill-rule="evenodd"/></mask><g clip-rule="evenodd" fill-rule="evenodd"><path d="m0 0 1920 122.466v865.604l-1920-90z" fill="#9b59b6"/><g mask="url(#d)"><path d="m54 1298.53s1376.79-942.271 1940.2-792.44c563.41 149.832 555.7 722.52 555.7 722.52z" fill="url(#b)"/><path d="m1335-327.466s-1376.7877 942.276-1940.196 792.444c-563.414-149.832-555.704-722.522-555.704-722.522z" fill="url(#c)"/></g></g></svg>