<svg fill="none" height="343" viewBox="0 0 242 343" width="242" xmlns="http://www.w3.org/2000/svg" xmlns:xlink="http://www.w3.org/1999/xlink"><filter id="a" color-interpolation-filters="sRGB" filterUnits="userSpaceOnUse" height="190.983" width="242" x="0" y="75.3228"><feFlood flood-opacity="0" result="BackgroundImageFix"/><feColorMatrix in="SourceAlpha" result="hardAlpha" type="matrix" values="0 0 0 0 0 0 0 0 0 0 0 0 0 0 0 0 0 0 127 0"/><feOffset/><feGaussianBlur stdDeviation="7.5"/><feColorMatrix type="matrix" values="0 0 0 0 0.4 0 0 0 0 0.4 0 0 0 0 0.4 0 0 0 0.279037 0"/><feBlend in2="BackgroundImageFix" mode="normal" result="effect1_dropShadow_8_4"/><feBlend in="SourceGraphic" in2="effect1_dropShadow_8_4" mode="normal" result="shape"/></filter><linearGradient id="b" gradientUnits="userSpaceOnUse" x1="-123.334" x2="-106.27" y1="136.036" y2="275.012"><stop offset="0" stop-color="#ff9d52"/><stop offset="1" stop-color="#ff6f00"/></linearGradient><mask id="c" height="239" maskUnits="userSpaceOnUse" width="212" x="15" y="0"><path clip-rule="evenodd" d="m34.6952 10.6243c-11.0699.6892-19.6952 9.8682-19.6952 20.9595v185.5232c0 12.112 10.217 21.712 22.3048 20.96l170.0002-10.583c11.07-.689 19.695-9.868 19.695-20.96v-185.5232c0-12.11117-10.217-21.711893-22.305-20.9593956zm171.4088 24.3607c6.085 0 11.018-4.9412 11.018-11.0365s-4.933-11.0365-11.018-11.0365-11.018 4.9412-11.018 11.0365 4.933 11.0365 11.018 11.0365z" fill="#fff" fill-rule="evenodd"/></mask><g filter="url(#a)"><path clip-rule="evenodd" d="m15 111.323c0-11.5982 9.402-21.0002 21-21.0002h170c11.598 0 21 9.402 21 21.0002v108.399c0 11.091-8.625 20.27-19.695 20.959l-170.0002 10.583c-12.0878.753-22.3048-8.848-22.3048-20.959z" fill="#e06506" fill-rule="evenodd"/></g><path clip-rule="evenodd" d="m34.6952 10.6243c-11.0699.6892-19.6952 9.8682-19.6952 20.9595v185.5232c0 12.112 10.217 21.712 22.3048 20.96l170.0002-10.583c11.07-.689 19.695-9.868 19.695-20.96v-185.5232c0-12.11117-10.217-21.711893-22.305-20.9593956zm171.4088 24.3607c6.085 0 11.018-4.9412 11.018-11.0365s-4.933-11.0365-11.018-11.0365-11.018 4.9412-11.018 11.0365 4.933 11.0365 11.018 11.0365z" fill="#9b59b6" fill-rule="evenodd"/><g mask="url(#c)"><path clip-rule="evenodd" d="m-106.27 275.012s215.664-189.9951 315.168-176.1981c99.504 13.7971 110.218 111.8761 110.218 111.8761z" fill="url(#b)" fill-rule="evenodd"/></g><g clip-rule="evenodd" fill-rule="evenodd"><path d="m57.9055 111.395c-4.2632 4.257-5.9055 10.28-5.9055 16.305v58.613c0 4.97 4.0294 8.999 9 8.999h122c4.971 0 9-4.029 9-9v-33.852c0-3.648-.587-7.311-2.484-10.426-5.198-8.536-19.07-23.651-46.393-6.685-36.328 22.559-36.328-14.29-55.0423-28.87-12.0366-9.378-23.5158-1.733-30.1752 4.916z" fill="#fff" opacity=".5"/><path d="m50.828 129.136c-4.8794 4.335-6.828 10.844-6.828 17.371v57.806c0 4.97 4.0294 8.999 9 8.999h137c4.971 0 9-4.029 9-9v-33.303c0-4.004-.71-8.024-2.985-11.319-5.932-8.589-21.28-23.082-51.129-6.341-40.22 22.559-40.22-14.29-60.9395-28.87-13.1533-9.256-25.7053-1.929-33.1185 4.657z" fill="#fff"/><path d="m15 283.149c0-8.991 7.0016-16.427 15.9767-16.969l178.3573-10.756c9.926-.598 18.245 7.413 18.019 17.355l-.846 37.328c-.198 8.724-6.967 15.881-15.666 16.563l-177.5117 13.923c-9.8825.775-18.3293-7.035-18.3293-16.948z" fill="#71368a"/><path d="m15 273.149c0-8.991 7.0016-16.427 15.9767-16.969l178.3573-10.756c9.926-.598 18.245 7.413 18.019 17.355l-.846 37.328c-.198 8.724-6.967 15.881-15.666 16.563l-177.5117 13.923c-9.8825.775-18.3293-7.035-18.3293-16.948z" fill="#9b59b6"/></g></svg>