<svg width="574" height="447" viewBox="0 0 574 447" fill="none" xmlns="http://www.w3.org/2000/svg">
<path fill-rule="evenodd" clip-rule="evenodd" d="M0 100.609C0 69.3788 24.3362 43.5585 55.5113 41.7119L511.511 14.7014C545.408 12.6936 574 39.6417 574 73.5982V382.525C574 417.171 544.288 444.36 509.778 441.294L53.7784 400.778C23.3371 398.074 0 372.571 0 342.01V100.609Z" fill="#EEEEEE"/>
<path fill-rule="evenodd" clip-rule="evenodd" d="M0 89.6087C0 58.3788 24.3362 32.5585 55.5113 30.7119L511.511 3.70142C545.408 1.69358 574 28.6417 574 62.5982V371.525C574 406.171 544.288 433.36 509.778 430.294L53.7784 389.778C23.3371 387.074 0 361.571 0 331.01V89.6087Z" fill="white"/>
</svg>
