<svg fill="none" height="447" viewBox="0 0 574 447" width="574" xmlns="http://www.w3.org/2000/svg"><g clip-rule="evenodd" fill-rule="evenodd"><path d="m0 100.609c0-31.2302 24.3362-57.0505 55.5113-58.8971l455.9997-27.0105c33.897-2.0078 62.489 24.9403 62.489 58.8968v308.9268c0 34.646-29.712 61.835-64.222 58.769l-455.9996-40.516c-30.4413-2.704-53.7784-28.207-53.7784-58.768z" fill="#eee"/><path d="m0 89.6087c0-31.2299 24.3362-57.0502 55.5113-58.8968l455.9997-27.01048c33.897-2.00784 62.489 24.94028 62.489 58.89678v308.9268c0 34.646-29.712 61.835-64.222 58.769l-455.9996-40.516c-30.4413-2.704-53.7784-28.207-53.7784-58.768z" fill="#fff"/></g></svg>