<svg fill="none" height="582" viewBox="0 0 1185 582" width="1185" xmlns="http://www.w3.org/2000/svg" xmlns:xlink="http://www.w3.org/1999/xlink"><linearGradient id="a" gradientUnits="userSpaceOnUse" x1="21.3992" x2="72.0968" y1="375.181" y2="788.08"><stop offset="0" stop-color="#ff9d52"/><stop offset="1" stop-color="#ff6f00"/></linearGradient><mask id="b" height="565" maskUnits="userSpaceOnUse" width="1170" x="0" y="0"><path clip-rule="evenodd" d="m0 53.2317c0-13.0165 10.3759-23.6604 23.3882-23.9922l1122.0018-28.611879c13.49-.344006 24.61 10.497779 24.61 23.992179v515.9722c0 13.255-10.75 24.001-24 24.001h-1122c-13.2548 0-24-10.746-24-24z" fill="#fff" fill-rule="evenodd"/></mask><path clip-rule="evenodd" d="m0 63.2317c0-13.0165 10.3759-23.6604 23.3882-23.9922l1122.0018-28.6119c13.49-.344 24.61 10.4978 24.61 23.9922v522.9102c0 13.254-10.75 24-24 24h-1122c-13.2548 0-24-10.746-24-24z" fill="#71368a" fill-rule="evenodd"/><path clip-rule="evenodd" d="m0 53.2317c0-13.0165 10.3759-23.6604 23.3882-23.9922l1122.0018-28.611879c13.49-.344006 24.61 10.497779 24.61 23.992179v515.9722c0 13.255-10.75 24.001-24 24.001h-1122c-13.2548 0-24-10.746-24-24z" fill="#9b59b6" fill-rule="evenodd"/><g mask="url(#b)"><path clip-rule="evenodd" d="m72.0968 788.08s638.8492-564.132 933.5932-523.182c294.74 40.95 326.46 332.15 326.46 332.15z" fill="url(#a)" fill-rule="evenodd"/></g></svg>