<svg width="1170" height="145" viewBox="0 0 1170 145" fill="none" xmlns="http://www.w3.org/2000/svg">
<path fill-rule="evenodd" clip-rule="evenodd" d="M0 51.4219C0 33.2862 14.635 18.549 32.7703 18.4227L1136.77 10.7367C1155.08 10.6092 1170 25.4207 1170 43.7359V84.8233C1170 102.742 1155.7 117.387 1137.79 117.814L33.7863 144.126C15.2583 144.568 0 129.669 0 111.135V51.4219Z" fill="#71368A"/>
<path fill-rule="evenodd" clip-rule="evenodd" d="M0 32.4844C0 19.2947 10.6436 8.57679 23.8329 8.48496L1145.83 0.673622C1159.15 0.58089 1170 11.3529 1170 24.673V83.6113C1170 96.6434 1159.6 107.294 1146.57 107.605L24.5719 134.346C11.097 134.667 0 123.831 0 110.353V32.4844Z" fill="#9B59B6"/>
</svg>
