<svg fill="none" height="145" viewBox="0 0 1170 145" width="1170" xmlns="http://www.w3.org/2000/svg"><g clip-rule="evenodd" fill-rule="evenodd"><path d="m0 51.4219c0-18.1357 14.635-32.8729 32.7703-32.9992l1103.9997-7.686c18.31-.1275 33.23 14.684 33.23 32.9992v41.0874c0 17.9187-14.3 32.5637-32.21 32.9907l-1104.0037 26.312c-18.528.442-33.7863-14.457-33.7863-32.991z" fill="#71368a"/><path d="m0 32.4844c0-13.1897 10.6436-23.90761 23.8329-23.99944l1121.9971-7.811338c13.32-.092732 24.17 10.679278 24.17 23.999378v58.9383c0 13.0321-10.4 23.6827-23.43 23.9937l-1121.9981 26.741c-13.4749.321-24.5719-10.515-24.5719-23.993z" fill="#9b59b6"/></g></svg>